<?xml version="1.0" encoding="utf-8" standalone="no"?>
<!DOCTYPE svg PUBLIC "-//W3C//DTD SVG 1.1//EN"
  "http://www.w3.org/Graphics/SVG/1.1/DTD/svg11.dtd">
<svg xmlns:xlink="http://www.w3.org/1999/xlink" width="676.424062pt" height="319.540664pt" viewBox="0 0 676.424062 319.540664" xmlns="http://www.w3.org/2000/svg" version="1.1">
 <metadata>
  <rdf:RDF xmlns:dc="http://purl.org/dc/elements/1.1/" xmlns:cc="http://creativecommons.org/ns#" xmlns:rdf="http://www.w3.org/1999/02/22-rdf-syntax-ns#">
   <cc:Work>
    <dc:type rdf:resource="http://purl.org/dc/dcmitype/StillImage"/>
    <dc:format>image/svg+xml</dc:format>
    <dc:creator>
     <cc:Agent>
      <dc:title>Matplotlib v3.11.0, https://matplotlib.org/</dc:title>
     </cc:Agent>
    </dc:creator>
   </cc:Work>
  </rdf:RDF>
 </metadata>
 <defs>
  <style type="text/css">*{stroke-linejoin: round; stroke-linecap: butt}</style>
 </defs>
 <g id="figure_1">
  <g id="patch_1">
   <path d="M 0 319.540664 
L 676.424062 319.540664 
L 676.424062 0 
L 0 0 
z
" style="fill: #ffffff"/>
  </g>
  <g id="axes_1">
   <g id="patch_2">
    <path d="M 50.466406 296.84 
L 669.224062 296.84 
L 669.224062 43.251767 
L 50.466406 43.251767 
z
" style="fill: #ffffff"/>
   </g>
   <g id="matplotlib.axis_1">
    <g id="xtick_1">
     <g id="line2d_1">
      <defs>
       <path id="m31af7827eb" d="M 0 0 
L 0 3.5 
" style="stroke: #000000; stroke-width: 0.8"/>
      </defs>
      <g>
       <use xlink:href="#m31af7827eb" x="113.131655" y="296.84" style="stroke: #000000; stroke-width: 0.8"/>
      </g>
     </g>
     <g id="text_1">
      <!-- route × length -->
      <g transform="translate(82.093374 310.298672) scale(0.085 -0.085)">
       <defs>
        <path id="DejaVuSans-55" d="M 2631 2963 
Q 2534 3019 2420 3045 
Q 2306 3072 2169 3072 
Q 1681 3072 1420 2755 
Q 1159 2438 1159 1844 
L 1159 0 
L 581 0 
L 581 3500 
L 1159 3500 
L 1159 2956 
Q 1341 3275 1631 3429 
Q 1922 3584 2338 3584 
Q 2397 3584 2469 3576 
Q 2541 3569 2628 3553 
L 2631 2963 
z
" transform="scale(0.015625)"/>
        <path id="DejaVuSans-52" d="M 1959 3097 
Q 1497 3097 1228 2736 
Q 959 2375 959 1747 
Q 959 1119 1226 758 
Q 1494 397 1959 397 
Q 2419 397 2687 759 
Q 2956 1122 2956 1747 
Q 2956 2369 2687 2733 
Q 2419 3097 1959 3097 
z
M 1959 3584 
Q 2709 3584 3137 3096 
Q 3566 2609 3566 1747 
Q 3566 888 3137 398 
Q 2709 -91 1959 -91 
Q 1206 -91 779 398 
Q 353 888 353 1747 
Q 353 2609 779 3096 
Q 1206 3584 1959 3584 
z
" transform="scale(0.015625)"/>
        <path id="DejaVuSans-58" d="M 544 1381 
L 544 3500 
L 1119 3500 
L 1119 1403 
Q 1119 906 1312 657 
Q 1506 409 1894 409 
Q 2359 409 2629 706 
Q 2900 1003 2900 1516 
L 2900 3500 
L 3475 3500 
L 3475 0 
L 2900 0 
L 2900 538 
Q 2691 219 2414 64 
Q 2138 -91 1772 -91 
Q 1169 -91 856 284 
Q 544 659 544 1381 
z
M 1991 3584 
L 1991 3584 
z
" transform="scale(0.015625)"/>
        <path id="DejaVuSans-57" d="M 1172 4494 
L 1172 3500 
L 2356 3500 
L 2356 3053 
L 1172 3053 
L 1172 1153 
Q 1172 725 1289 603 
Q 1406 481 1766 481 
L 2356 481 
L 2356 0 
L 1766 0 
Q 1100 0 847 248 
Q 594 497 594 1153 
L 594 3053 
L 172 3053 
L 172 3500 
L 594 3500 
L 594 4494 
L 1172 4494 
z
" transform="scale(0.015625)"/>
        <path id="DejaVuSans-48" d="M 3597 1894 
L 3597 1613 
L 953 1613 
Q 991 1019 1311 708 
Q 1631 397 2203 397 
Q 2534 397 2845 478 
Q 3156 559 3463 722 
L 3463 178 
Q 3153 47 2828 -22 
Q 2503 -91 2169 -91 
Q 1331 -91 842 396 
Q 353 884 353 1716 
Q 353 2575 817 3079 
Q 1281 3584 2069 3584 
Q 2775 3584 3186 3129 
Q 3597 2675 3597 1894 
z
M 3022 2063 
Q 3016 2534 2758 2815 
Q 2500 3097 2075 3097 
Q 1594 3097 1305 2825 
Q 1016 2553 972 2059 
L 3022 2063 
z
" transform="scale(0.015625)"/>
        <path id="DejaVuSans-3" transform="scale(0.015625)"/>
        <path id="DejaVuSans-99" d="M 4488 3438 
L 3059 2003 
L 4488 575 
L 4116 197 
L 2681 1631 
L 1247 197 
L 878 575 
L 2303 2003 
L 878 3438 
L 1247 3816 
L 2681 2381 
L 4116 3816 
L 4488 3438 
z
" transform="scale(0.015625)"/>
        <path id="DejaVuSans-4f" d="M 603 4863 
L 1178 4863 
L 1178 0 
L 603 0 
L 603 4863 
z
" transform="scale(0.015625)"/>
        <path id="DejaVuSans-51" d="M 3513 2113 
L 3513 0 
L 2938 0 
L 2938 2094 
Q 2938 2591 2744 2837 
Q 2550 3084 2163 3084 
Q 1697 3084 1428 2787 
Q 1159 2491 1159 1978 
L 1159 0 
L 581 0 
L 581 3500 
L 1159 3500 
L 1159 2956 
Q 1366 3272 1645 3428 
Q 1925 3584 2291 3584 
Q 2894 3584 3203 3211 
Q 3513 2838 3513 2113 
z
" transform="scale(0.015625)"/>
        <path id="DejaVuSans-4a" d="M 2906 1791 
Q 2906 2416 2648 2759 
Q 2391 3103 1925 3103 
Q 1463 3103 1205 2759 
Q 947 2416 947 1791 
Q 947 1169 1205 825 
Q 1463 481 1925 481 
Q 2391 481 2648 825 
Q 2906 1169 2906 1791 
z
M 3481 434 
Q 3481 -459 3084 -895 
Q 2688 -1331 1869 -1331 
Q 1566 -1331 1297 -1286 
Q 1028 -1241 775 -1147 
L 775 -588 
Q 1028 -725 1275 -790 
Q 1522 -856 1778 -856 
Q 2344 -856 2625 -561 
Q 2906 -266 2906 331 
L 2906 616 
Q 2728 306 2450 153 
Q 2172 0 1784 0 
Q 1141 0 747 490 
Q 353 981 353 1791 
Q 353 2603 747 3093 
Q 1141 3584 1784 3584 
Q 2172 3584 2450 3431 
Q 2728 3278 2906 2969 
L 2906 3500 
L 3481 3500 
L 3481 434 
z
" transform="scale(0.015625)"/>
        <path id="DejaVuSans-4b" d="M 3513 2113 
L 3513 0 
L 2938 0 
L 2938 2094 
Q 2938 2591 2744 2837 
Q 2550 3084 2163 3084 
Q 1697 3084 1428 2787 
Q 1159 2491 1159 1978 
L 1159 0 
L 581 0 
L 581 4863 
L 1159 4863 
L 1159 2956 
Q 1366 3272 1645 3428 
Q 1925 3584 2291 3584 
Q 2894 3584 3203 3211 
Q 3513 2838 3513 2113 
z
" transform="scale(0.015625)"/>
       </defs>
       <use xlink:href="#DejaVuSans-55"/>
       <use xlink:href="#DejaVuSans-52" transform="translate(38.90625 0)"/>
       <use xlink:href="#DejaVuSans-58" transform="translate(100.09375 0)"/>
       <use xlink:href="#DejaVuSans-57" transform="translate(163.46875 0)"/>
       <use xlink:href="#DejaVuSans-48" transform="translate(202.671875 0)"/>
       <use xlink:href="#DejaVuSans-3" transform="translate(264.203125 0)"/>
       <use xlink:href="#DejaVuSans-99" transform="translate(295.984375 0)"/>
       <use xlink:href="#DejaVuSans-3" transform="translate(379.78125 0)"/>
       <use xlink:href="#DejaVuSans-4f" transform="translate(411.5625 0)"/>
       <use xlink:href="#DejaVuSans-48" transform="translate(439.34375 0)"/>
       <use xlink:href="#DejaVuSans-51" transform="translate(500.875 0)"/>
       <use xlink:href="#DejaVuSans-4a" transform="translate(564.25 0)"/>
       <use xlink:href="#DejaVuSans-57" transform="translate(627.734375 0)"/>
       <use xlink:href="#DejaVuSans-4b" transform="translate(666.9375 0)"/>
      </g>
     </g>
    </g>
    <g id="xtick_2">
     <g id="line2d_2">
      <g>
       <use xlink:href="#m31af7827eb" x="236.488445" y="296.84" style="stroke: #000000; stroke-width: 0.8"/>
      </g>
     </g>
     <g id="text_2">
      <!-- route × lexicality -->
      <g transform="translate(200.095164 310.298672) scale(0.085 -0.085)">
       <defs>
        <path id="DejaVuSans-5b" d="M 3513 3500 
L 2247 1797 
L 3578 0 
L 2900 0 
L 1881 1375 
L 863 0 
L 184 0 
L 1544 1831 
L 300 3500 
L 978 3500 
L 1906 2253 
L 2834 3500 
L 3513 3500 
z
" transform="scale(0.015625)"/>
        <path id="DejaVuSans-4c" d="M 603 3500 
L 1178 3500 
L 1178 0 
L 603 0 
L 603 3500 
z
M 603 4863 
L 1178 4863 
L 1178 4134 
L 603 4134 
L 603 4863 
z
" transform="scale(0.015625)"/>
        <path id="DejaVuSans-46" d="M 3122 3366 
L 3122 2828 
Q 2878 2963 2633 3030 
Q 2388 3097 2138 3097 
Q 1578 3097 1268 2742 
Q 959 2388 959 1747 
Q 959 1106 1268 751 
Q 1578 397 2138 397 
Q 2388 397 2633 464 
Q 2878 531 3122 666 
L 3122 134 
Q 2881 22 2623 -34 
Q 2366 -91 2075 -91 
Q 1284 -91 818 406 
Q 353 903 353 1747 
Q 353 2603 823 3093 
Q 1294 3584 2113 3584 
Q 2378 3584 2631 3529 
Q 2884 3475 3122 3366 
z
" transform="scale(0.015625)"/>
        <path id="DejaVuSans-44" d="M 2194 1759 
Q 1497 1759 1228 1600 
Q 959 1441 959 1056 
Q 959 750 1161 570 
Q 1363 391 1709 391 
Q 2188 391 2477 730 
Q 2766 1069 2766 1631 
L 2766 1759 
L 2194 1759 
z
M 3341 1997 
L 3341 0 
L 2766 0 
L 2766 531 
Q 2569 213 2275 61 
Q 1981 -91 1556 -91 
Q 1019 -91 701 211 
Q 384 513 384 1019 
Q 384 1609 779 1909 
Q 1175 2209 1959 2209 
L 2766 2209 
L 2766 2266 
Q 2766 2663 2505 2880 
Q 2244 3097 1772 3097 
Q 1472 3097 1187 3025 
Q 903 2953 641 2809 
L 641 3341 
Q 956 3463 1253 3523 
Q 1550 3584 1831 3584 
Q 2591 3584 2966 3190 
Q 3341 2797 3341 1997 
z
" transform="scale(0.015625)"/>
        <path id="DejaVuSans-5c" d="M 2059 -325 
Q 1816 -950 1584 -1140 
Q 1353 -1331 966 -1331 
L 506 -1331 
L 506 -850 
L 844 -850 
Q 1081 -850 1212 -737 
Q 1344 -625 1503 -206 
L 1606 56 
L 191 3500 
L 800 3500 
L 1894 763 
L 2988 3500 
L 3597 3500 
L 2059 -325 
z
" transform="scale(0.015625)"/>
       </defs>
       <use xlink:href="#DejaVuSans-55"/>
       <use xlink:href="#DejaVuSans-52" transform="translate(38.90625 0)"/>
       <use xlink:href="#DejaVuSans-58" transform="translate(100.09375 0)"/>
       <use xlink:href="#DejaVuSans-57" transform="translate(163.46875 0)"/>
       <use xlink:href="#DejaVuSans-48" transform="translate(202.671875 0)"/>
       <use xlink:href="#DejaVuSans-3" transform="translate(264.203125 0)"/>
       <use xlink:href="#DejaVuSans-99" transform="translate(295.984375 0)"/>
       <use xlink:href="#DejaVuSans-3" transform="translate(379.78125 0)"/>
       <use xlink:href="#DejaVuSans-4f" transform="translate(411.5625 0)"/>
       <use xlink:href="#DejaVuSans-48" transform="translate(439.34375 0)"/>
       <use xlink:href="#DejaVuSans-5b" transform="translate(499.125 0)"/>
       <use xlink:href="#DejaVuSans-4c" transform="translate(558.3125 0)"/>
       <use xlink:href="#DejaVuSans-46" transform="translate(586.09375 0)"/>
       <use xlink:href="#DejaVuSans-44" transform="translate(641.078125 0)"/>
       <use xlink:href="#DejaVuSans-4f" transform="translate(702.359375 0)"/>
       <use xlink:href="#DejaVuSans-4c" transform="translate(730.140625 0)"/>
       <use xlink:href="#DejaVuSans-57" transform="translate(757.921875 0)"/>
       <use xlink:href="#DejaVuSans-5c" transform="translate(797.125 0)"/>
      </g>
     </g>
    </g>
    <g id="xtick_3">
     <g id="line2d_3">
      <g>
       <use xlink:href="#m31af7827eb" x="359.845234" y="296.84" style="stroke: #000000; stroke-width: 0.8"/>
      </g>
     </g>
     <g id="text_3">
      <!-- route × morphology -->
      <g transform="translate(316.879727 310.298672) scale(0.085 -0.085)">
       <defs>
        <path id="DejaVuSans-50" d="M 3328 2828 
Q 3544 3216 3844 3400 
Q 4144 3584 4550 3584 
Q 5097 3584 5394 3201 
Q 5691 2819 5691 2113 
L 5691 0 
L 5113 0 
L 5113 2094 
Q 5113 2597 4934 2840 
Q 4756 3084 4391 3084 
Q 3944 3084 3684 2787 
Q 3425 2491 3425 1978 
L 3425 0 
L 2847 0 
L 2847 2094 
Q 2847 2600 2669 2842 
Q 2491 3084 2119 3084 
Q 1678 3084 1418 2786 
Q 1159 2488 1159 1978 
L 1159 0 
L 581 0 
L 581 3500 
L 1159 3500 
L 1159 2956 
Q 1356 3278 1631 3431 
Q 1906 3584 2284 3584 
Q 2666 3584 2933 3390 
Q 3200 3197 3328 2828 
z
" transform="scale(0.015625)"/>
        <path id="DejaVuSans-53" d="M 1159 525 
L 1159 -1331 
L 581 -1331 
L 581 3500 
L 1159 3500 
L 1159 2969 
Q 1341 3281 1617 3432 
Q 1894 3584 2278 3584 
Q 2916 3584 3314 3078 
Q 3713 2572 3713 1747 
Q 3713 922 3314 415 
Q 2916 -91 2278 -91 
Q 1894 -91 1617 61 
Q 1341 213 1159 525 
z
M 3116 1747 
Q 3116 2381 2855 2742 
Q 2594 3103 2138 3103 
Q 1681 3103 1420 2742 
Q 1159 2381 1159 1747 
Q 1159 1113 1420 752 
Q 1681 391 2138 391 
Q 2594 391 2855 752 
Q 3116 1113 3116 1747 
z
" transform="scale(0.015625)"/>
       </defs>
       <use xlink:href="#DejaVuSans-55"/>
       <use xlink:href="#DejaVuSans-52" transform="translate(38.90625 0)"/>
       <use xlink:href="#DejaVuSans-58" transform="translate(100.09375 0)"/>
       <use xlink:href="#DejaVuSans-57" transform="translate(163.46875 0)"/>
       <use xlink:href="#DejaVuSans-48" transform="translate(202.671875 0)"/>
       <use xlink:href="#DejaVuSans-3" transform="translate(264.203125 0)"/>
       <use xlink:href="#DejaVuSans-99" transform="translate(295.984375 0)"/>
       <use xlink:href="#DejaVuSans-3" transform="translate(379.78125 0)"/>
       <use xlink:href="#DejaVuSans-50" transform="translate(411.5625 0)"/>
       <use xlink:href="#DejaVuSans-52" transform="translate(508.96875 0)"/>
       <use xlink:href="#DejaVuSans-55" transform="translate(570.15625 0)"/>
       <use xlink:href="#DejaVuSans-53" transform="translate(611.265625 0)"/>
       <use xlink:href="#DejaVuSans-4b" transform="translate(674.75 0)"/>
       <use xlink:href="#DejaVuSans-52" transform="translate(738.125 0)"/>
       <use xlink:href="#DejaVuSans-4f" transform="translate(799.3125 0)"/>
       <use xlink:href="#DejaVuSans-52" transform="translate(827.09375 0)"/>
       <use xlink:href="#DejaVuSans-4a" transform="translate(888.28125 0)"/>
       <use xlink:href="#DejaVuSans-5c" transform="translate(951.765625 0)"/>
      </g>
     </g>
    </g>
    <g id="xtick_4">
     <g id="line2d_4">
      <g>
       <use xlink:href="#m31af7827eb" x="483.202024" y="296.84" style="stroke: #000000; stroke-width: 0.8"/>
      </g>
     </g>
     <g id="text_4">
      <!-- lexicality × length -->
      <g transform="translate(444.4905 310.298672) scale(0.085 -0.085)">
       <use xlink:href="#DejaVuSans-4f"/>
       <use xlink:href="#DejaVuSans-48" transform="translate(27.78125 0)"/>
       <use xlink:href="#DejaVuSans-5b" transform="translate(87.5625 0)"/>
       <use xlink:href="#DejaVuSans-4c" transform="translate(146.75 0)"/>
       <use xlink:href="#DejaVuSans-46" transform="translate(174.53125 0)"/>
       <use xlink:href="#DejaVuSans-44" transform="translate(229.515625 0)"/>
       <use xlink:href="#DejaVuSans-4f" transform="translate(290.796875 0)"/>
       <use xlink:href="#DejaVuSans-4c" transform="translate(318.578125 0)"/>
       <use xlink:href="#DejaVuSans-57" transform="translate(346.359375 0)"/>
       <use xlink:href="#DejaVuSans-5c" transform="translate(385.5625 0)"/>
       <use xlink:href="#DejaVuSans-3" transform="translate(444.75 0)"/>
       <use xlink:href="#DejaVuSans-99" transform="translate(476.53125 0)"/>
       <use xlink:href="#DejaVuSans-3" transform="translate(560.328125 0)"/>
       <use xlink:href="#DejaVuSans-4f" transform="translate(592.109375 0)"/>
       <use xlink:href="#DejaVuSans-48" transform="translate(619.890625 0)"/>
       <use xlink:href="#DejaVuSans-51" transform="translate(681.421875 0)"/>
       <use xlink:href="#DejaVuSans-4a" transform="translate(744.796875 0)"/>
       <use xlink:href="#DejaVuSans-57" transform="translate(808.28125 0)"/>
       <use xlink:href="#DejaVuSans-4b" transform="translate(847.484375 0)"/>
      </g>
     </g>
    </g>
    <g id="xtick_5">
     <g id="line2d_5">
      <g>
       <use xlink:href="#m31af7827eb" x="606.558813" y="296.84" style="stroke: #000000; stroke-width: 0.8"/>
      </g>
     </g>
     <g id="text_5">
      <!-- morphology × length -->
      <g transform="translate(561.275063 310.298672) scale(0.085 -0.085)">
       <use xlink:href="#DejaVuSans-50"/>
       <use xlink:href="#DejaVuSans-52" transform="translate(97.40625 0)"/>
       <use xlink:href="#DejaVuSans-55" transform="translate(158.59375 0)"/>
       <use xlink:href="#DejaVuSans-53" transform="translate(199.703125 0)"/>
       <use xlink:href="#DejaVuSans-4b" transform="translate(263.1875 0)"/>
       <use xlink:href="#DejaVuSans-52" transform="translate(326.5625 0)"/>
       <use xlink:href="#DejaVuSans-4f" transform="translate(387.75 0)"/>
       <use xlink:href="#DejaVuSans-52" transform="translate(415.53125 0)"/>
       <use xlink:href="#DejaVuSans-4a" transform="translate(476.71875 0)"/>
       <use xlink:href="#DejaVuSans-5c" transform="translate(540.203125 0)"/>
       <use xlink:href="#DejaVuSans-3" transform="translate(599.390625 0)"/>
       <use xlink:href="#DejaVuSans-99" transform="translate(631.171875 0)"/>
       <use xlink:href="#DejaVuSans-3" transform="translate(714.96875 0)"/>
       <use xlink:href="#DejaVuSans-4f" transform="translate(746.75 0)"/>
       <use xlink:href="#DejaVuSans-48" transform="translate(774.53125 0)"/>
       <use xlink:href="#DejaVuSans-51" transform="translate(836.0625 0)"/>
       <use xlink:href="#DejaVuSans-4a" transform="translate(899.4375 0)"/>
       <use xlink:href="#DejaVuSans-57" transform="translate(962.921875 0)"/>
       <use xlink:href="#DejaVuSans-4b" transform="translate(1002.125 0)"/>
      </g>
     </g>
    </g>
   </g>
   <g id="matplotlib.axis_2">
    <g id="ytick_1">
     <g id="line2d_6">
      <path d="M 50.466406 280.33715 
L 669.224062 280.33715 
" clip-path="url(#p15d7da0151)" style="fill: none; stroke: #b0b0b0; stroke-opacity: 0.25; stroke-width: 0.8; stroke-linecap: square"/>
     </g>
     <g id="line2d_7">
      <defs>
       <path id="m671429a060" d="M 0 0 
L -3.5 0 
" style="stroke: #000000; stroke-width: 0.8"/>
      </defs>
      <g>
       <use xlink:href="#m671429a060" x="50.466406" y="280.33715" style="stroke: #000000; stroke-width: 0.8"/>
      </g>
     </g>
     <g id="text_6">
      <!-- 0.00 -->
      <g transform="translate(21.200781 284.135978) scale(0.1 -0.1)">
       <defs>
        <path id="DejaVuSans-13" d="M 2034 4250 
Q 1547 4250 1301 3770 
Q 1056 3291 1056 2328 
Q 1056 1369 1301 889 
Q 1547 409 2034 409 
Q 2525 409 2770 889 
Q 3016 1369 3016 2328 
Q 3016 3291 2770 3770 
Q 2525 4250 2034 4250 
z
M 2034 4750 
Q 2819 4750 3233 4129 
Q 3647 3509 3647 2328 
Q 3647 1150 3233 529 
Q 2819 -91 2034 -91 
Q 1250 -91 836 529 
Q 422 1150 422 2328 
Q 422 3509 836 4129 
Q 1250 4750 2034 4750 
z
" transform="scale(0.015625)"/>
        <path id="DejaVuSans-11" d="M 684 794 
L 1344 794 
L 1344 0 
L 684 0 
L 684 794 
z
" transform="scale(0.015625)"/>
       </defs>
       <use xlink:href="#DejaVuSans-13"/>
       <use xlink:href="#DejaVuSans-11" transform="translate(63.625 0)"/>
       <use xlink:href="#DejaVuSans-13" transform="translate(95.40625 0)"/>
       <use xlink:href="#DejaVuSans-13" transform="translate(159.03125 0)"/>
      </g>
     </g>
    </g>
    <g id="ytick_2">
     <g id="line2d_8">
      <path d="M 50.466406 250.908075 
L 669.224062 250.908075 
" clip-path="url(#p15d7da0151)" style="fill: none; stroke: #b0b0b0; stroke-opacity: 0.25; stroke-width: 0.8; stroke-linecap: square"/>
     </g>
     <g id="line2d_9">
      <g>
       <use xlink:href="#m671429a060" x="50.466406" y="250.908075" style="stroke: #000000; stroke-width: 0.8"/>
      </g>
     </g>
     <g id="text_7">
      <!-- 0.01 -->
      <g transform="translate(21.200781 254.706903) scale(0.1 -0.1)">
       <defs>
        <path id="DejaVuSans-14" d="M 794 531 
L 1825 531 
L 1825 4091 
L 703 3866 
L 703 4441 
L 1819 4666 
L 2450 4666 
L 2450 531 
L 3481 531 
L 3481 0 
L 794 0 
L 794 531 
z
" transform="scale(0.015625)"/>
       </defs>
       <use xlink:href="#DejaVuSans-13"/>
       <use xlink:href="#DejaVuSans-11" transform="translate(63.625 0)"/>
       <use xlink:href="#DejaVuSans-13" transform="translate(95.40625 0)"/>
       <use xlink:href="#DejaVuSans-14" transform="translate(159.03125 0)"/>
      </g>
     </g>
    </g>
    <g id="ytick_3">
     <g id="line2d_10">
      <path d="M 50.466406 221.479 
L 669.224062 221.479 
" clip-path="url(#p15d7da0151)" style="fill: none; stroke: #b0b0b0; stroke-opacity: 0.25; stroke-width: 0.8; stroke-linecap: square"/>
     </g>
     <g id="line2d_11">
      <g>
       <use xlink:href="#m671429a060" x="50.466406" y="221.479" style="stroke: #000000; stroke-width: 0.8"/>
      </g>
     </g>
     <g id="text_8">
      <!-- 0.02 -->
      <g transform="translate(21.200781 225.277828) scale(0.1 -0.1)">
       <defs>
        <path id="DejaVuSans-15" d="M 1228 531 
L 3431 531 
L 3431 0 
L 469 0 
L 469 531 
Q 828 903 1448 1529 
Q 2069 2156 2228 2338 
Q 2531 2678 2651 2914 
Q 2772 3150 2772 3378 
Q 2772 3750 2511 3984 
Q 2250 4219 1831 4219 
Q 1534 4219 1204 4116 
Q 875 4013 500 3803 
L 500 4441 
Q 881 4594 1212 4672 
Q 1544 4750 1819 4750 
Q 2544 4750 2975 4387 
Q 3406 4025 3406 3419 
Q 3406 3131 3298 2873 
Q 3191 2616 2906 2266 
Q 2828 2175 2409 1742 
Q 1991 1309 1228 531 
z
" transform="scale(0.015625)"/>
       </defs>
       <use xlink:href="#DejaVuSans-13"/>
       <use xlink:href="#DejaVuSans-11" transform="translate(63.625 0)"/>
       <use xlink:href="#DejaVuSans-13" transform="translate(95.40625 0)"/>
       <use xlink:href="#DejaVuSans-15" transform="translate(159.03125 0)"/>
      </g>
     </g>
    </g>
    <g id="ytick_4">
     <g id="line2d_12">
      <path d="M 50.466406 192.049925 
L 669.224062 192.049925 
" clip-path="url(#p15d7da0151)" style="fill: none; stroke: #b0b0b0; stroke-opacity: 0.25; stroke-width: 0.8; stroke-linecap: square"/>
     </g>
     <g id="line2d_13">
      <g>
       <use xlink:href="#m671429a060" x="50.466406" y="192.049925" style="stroke: #000000; stroke-width: 0.8"/>
      </g>
     </g>
     <g id="text_9">
      <!-- 0.03 -->
      <g transform="translate(21.200781 195.848753) scale(0.1 -0.1)">
       <defs>
        <path id="DejaVuSans-16" d="M 2597 2516 
Q 3050 2419 3304 2112 
Q 3559 1806 3559 1356 
Q 3559 666 3084 287 
Q 2609 -91 1734 -91 
Q 1441 -91 1130 -33 
Q 819 25 488 141 
L 488 750 
Q 750 597 1062 519 
Q 1375 441 1716 441 
Q 2309 441 2620 675 
Q 2931 909 2931 1356 
Q 2931 1769 2642 2001 
Q 2353 2234 1838 2234 
L 1294 2234 
L 1294 2753 
L 1863 2753 
Q 2328 2753 2575 2939 
Q 2822 3125 2822 3475 
Q 2822 3834 2567 4026 
Q 2313 4219 1838 4219 
Q 1578 4219 1281 4162 
Q 984 4106 628 3988 
L 628 4550 
Q 988 4650 1302 4700 
Q 1616 4750 1894 4750 
Q 2613 4750 3031 4423 
Q 3450 4097 3450 3541 
Q 3450 3153 3228 2886 
Q 3006 2619 2597 2516 
z
" transform="scale(0.015625)"/>
       </defs>
       <use xlink:href="#DejaVuSans-13"/>
       <use xlink:href="#DejaVuSans-11" transform="translate(63.625 0)"/>
       <use xlink:href="#DejaVuSans-13" transform="translate(95.40625 0)"/>
       <use xlink:href="#DejaVuSans-16" transform="translate(159.03125 0)"/>
      </g>
     </g>
    </g>
    <g id="ytick_5">
     <g id="line2d_14">
      <path d="M 50.466406 162.62085 
L 669.224062 162.62085 
" clip-path="url(#p15d7da0151)" style="fill: none; stroke: #b0b0b0; stroke-opacity: 0.25; stroke-width: 0.8; stroke-linecap: square"/>
     </g>
     <g id="line2d_15">
      <g>
       <use xlink:href="#m671429a060" x="50.466406" y="162.62085" style="stroke: #000000; stroke-width: 0.8"/>
      </g>
     </g>
     <g id="text_10">
      <!-- 0.04 -->
      <g transform="translate(21.200781 166.419678) scale(0.1 -0.1)">
       <defs>
        <path id="DejaVuSans-17" d="M 2419 4116 
L 825 1625 
L 2419 1625 
L 2419 4116 
z
M 2253 4666 
L 3047 4666 
L 3047 1625 
L 3713 1625 
L 3713 1100 
L 3047 1100 
L 3047 0 
L 2419 0 
L 2419 1100 
L 313 1100 
L 313 1709 
L 2253 4666 
z
" transform="scale(0.015625)"/>
       </defs>
       <use xlink:href="#DejaVuSans-13"/>
       <use xlink:href="#DejaVuSans-11" transform="translate(63.625 0)"/>
       <use xlink:href="#DejaVuSans-13" transform="translate(95.40625 0)"/>
       <use xlink:href="#DejaVuSans-17" transform="translate(159.03125 0)"/>
      </g>
     </g>
    </g>
    <g id="ytick_6">
     <g id="line2d_16">
      <path d="M 50.466406 133.191775 
L 669.224062 133.191775 
" clip-path="url(#p15d7da0151)" style="fill: none; stroke: #b0b0b0; stroke-opacity: 0.25; stroke-width: 0.8; stroke-linecap: square"/>
     </g>
     <g id="line2d_17">
      <g>
       <use xlink:href="#m671429a060" x="50.466406" y="133.191775" style="stroke: #000000; stroke-width: 0.8"/>
      </g>
     </g>
     <g id="text_11">
      <!-- 0.05 -->
      <g transform="translate(21.200781 136.990603) scale(0.1 -0.1)">
       <defs>
        <path id="DejaVuSans-18" d="M 691 4666 
L 3169 4666 
L 3169 4134 
L 1269 4134 
L 1269 2991 
Q 1406 3038 1543 3061 
Q 1681 3084 1819 3084 
Q 2600 3084 3056 2656 
Q 3513 2228 3513 1497 
Q 3513 744 3044 326 
Q 2575 -91 1722 -91 
Q 1428 -91 1123 -41 
Q 819 9 494 109 
L 494 744 
Q 775 591 1075 516 
Q 1375 441 1709 441 
Q 2250 441 2565 725 
Q 2881 1009 2881 1497 
Q 2881 1984 2565 2268 
Q 2250 2553 1709 2553 
Q 1456 2553 1204 2497 
Q 953 2441 691 2322 
L 691 4666 
z
" transform="scale(0.015625)"/>
       </defs>
       <use xlink:href="#DejaVuSans-13"/>
       <use xlink:href="#DejaVuSans-11" transform="translate(63.625 0)"/>
       <use xlink:href="#DejaVuSans-13" transform="translate(95.40625 0)"/>
       <use xlink:href="#DejaVuSans-18" transform="translate(159.03125 0)"/>
      </g>
     </g>
    </g>
    <g id="ytick_7">
     <g id="line2d_18">
      <path d="M 50.466406 103.7627 
L 669.224062 103.7627 
" clip-path="url(#p15d7da0151)" style="fill: none; stroke: #b0b0b0; stroke-opacity: 0.25; stroke-width: 0.8; stroke-linecap: square"/>
     </g>
     <g id="line2d_19">
      <g>
       <use xlink:href="#m671429a060" x="50.466406" y="103.7627" style="stroke: #000000; stroke-width: 0.8"/>
      </g>
     </g>
     <g id="text_12">
      <!-- 0.06 -->
      <g transform="translate(21.200781 107.561528) scale(0.1 -0.1)">
       <defs>
        <path id="DejaVuSans-19" d="M 2113 2584 
Q 1688 2584 1439 2293 
Q 1191 2003 1191 1497 
Q 1191 994 1439 701 
Q 1688 409 2113 409 
Q 2538 409 2786 701 
Q 3034 994 3034 1497 
Q 3034 2003 2786 2293 
Q 2538 2584 2113 2584 
z
M 3366 4563 
L 3366 3988 
Q 3128 4100 2886 4159 
Q 2644 4219 2406 4219 
Q 1781 4219 1451 3797 
Q 1122 3375 1075 2522 
Q 1259 2794 1537 2939 
Q 1816 3084 2150 3084 
Q 2853 3084 3261 2657 
Q 3669 2231 3669 1497 
Q 3669 778 3244 343 
Q 2819 -91 2113 -91 
Q 1303 -91 875 529 
Q 447 1150 447 2328 
Q 447 3434 972 4092 
Q 1497 4750 2381 4750 
Q 2619 4750 2861 4703 
Q 3103 4656 3366 4563 
z
" transform="scale(0.015625)"/>
       </defs>
       <use xlink:href="#DejaVuSans-13"/>
       <use xlink:href="#DejaVuSans-11" transform="translate(63.625 0)"/>
       <use xlink:href="#DejaVuSans-13" transform="translate(95.40625 0)"/>
       <use xlink:href="#DejaVuSans-19" transform="translate(159.03125 0)"/>
      </g>
     </g>
    </g>
    <g id="ytick_8">
     <g id="line2d_20">
      <path d="M 50.466406 74.333625 
L 669.224062 74.333625 
" clip-path="url(#p15d7da0151)" style="fill: none; stroke: #b0b0b0; stroke-opacity: 0.25; stroke-width: 0.8; stroke-linecap: square"/>
     </g>
     <g id="line2d_21">
      <g>
       <use xlink:href="#m671429a060" x="50.466406" y="74.333625" style="stroke: #000000; stroke-width: 0.8"/>
      </g>
     </g>
     <g id="text_13">
      <!-- 0.07 -->
      <g transform="translate(21.200781 78.132453) scale(0.1 -0.1)">
       <defs>
        <path id="DejaVuSans-1a" d="M 525 4666 
L 3525 4666 
L 3525 4397 
L 1831 0 
L 1172 0 
L 2766 4134 
L 525 4134 
L 525 4666 
z
" transform="scale(0.015625)"/>
       </defs>
       <use xlink:href="#DejaVuSans-13"/>
       <use xlink:href="#DejaVuSans-11" transform="translate(63.625 0)"/>
       <use xlink:href="#DejaVuSans-13" transform="translate(95.40625 0)"/>
       <use xlink:href="#DejaVuSans-1a" transform="translate(159.03125 0)"/>
      </g>
     </g>
    </g>
    <g id="ytick_9">
     <g id="line2d_22">
      <path d="M 50.466406 44.90455 
L 669.224062 44.90455 
" clip-path="url(#p15d7da0151)" style="fill: none; stroke: #b0b0b0; stroke-opacity: 0.25; stroke-width: 0.8; stroke-linecap: square"/>
     </g>
     <g id="line2d_23">
      <g>
       <use xlink:href="#m671429a060" x="50.466406" y="44.90455" style="stroke: #000000; stroke-width: 0.8"/>
      </g>
     </g>
     <g id="text_14">
      <!-- 0.08 -->
      <g transform="translate(21.200781 48.703378) scale(0.1 -0.1)">
       <defs>
        <path id="DejaVuSans-1b" d="M 2034 2216 
Q 1584 2216 1326 1975 
Q 1069 1734 1069 1313 
Q 1069 891 1326 650 
Q 1584 409 2034 409 
Q 2484 409 2743 651 
Q 3003 894 3003 1313 
Q 3003 1734 2745 1975 
Q 2488 2216 2034 2216 
z
M 1403 2484 
Q 997 2584 770 2862 
Q 544 3141 544 3541 
Q 544 4100 942 4425 
Q 1341 4750 2034 4750 
Q 2731 4750 3128 4425 
Q 3525 4100 3525 3541 
Q 3525 3141 3298 2862 
Q 3072 2584 2669 2484 
Q 3125 2378 3379 2068 
Q 3634 1759 3634 1313 
Q 3634 634 3220 271 
Q 2806 -91 2034 -91 
Q 1263 -91 848 271 
Q 434 634 434 1313 
Q 434 1759 690 2068 
Q 947 2378 1403 2484 
z
M 1172 3481 
Q 1172 3119 1398 2916 
Q 1625 2713 2034 2713 
Q 2441 2713 2670 2916 
Q 2900 3119 2900 3481 
Q 2900 3844 2670 4047 
Q 2441 4250 2034 4250 
Q 1625 4250 1398 4047 
Q 1172 3844 1172 3481 
z
" transform="scale(0.015625)"/>
       </defs>
       <use xlink:href="#DejaVuSans-13"/>
       <use xlink:href="#DejaVuSans-11" transform="translate(63.625 0)"/>
       <use xlink:href="#DejaVuSans-13" transform="translate(95.40625 0)"/>
       <use xlink:href="#DejaVuSans-1b" transform="translate(159.03125 0)"/>
      </g>
     </g>
    </g>
    <g id="text_15">
     <!-- Held-out R² lost when the block is dropped -->
     <g transform="translate(14.798437 276.894321) rotate(-90) scale(0.1 -0.1)">
      <defs>
       <path id="DejaVuSans-2b" d="M 628 4666 
L 1259 4666 
L 1259 2753 
L 3553 2753 
L 3553 4666 
L 4184 4666 
L 4184 0 
L 3553 0 
L 3553 2222 
L 1259 2222 
L 1259 0 
L 628 0 
L 628 4666 
z
" transform="scale(0.015625)"/>
       <path id="DejaVuSans-47" d="M 2906 2969 
L 2906 4863 
L 3481 4863 
L 3481 0 
L 2906 0 
L 2906 525 
Q 2725 213 2448 61 
Q 2172 -91 1784 -91 
Q 1150 -91 751 415 
Q 353 922 353 1747 
Q 353 2572 751 3078 
Q 1150 3584 1784 3584 
Q 2172 3584 2448 3432 
Q 2725 3281 2906 2969 
z
M 947 1747 
Q 947 1113 1208 752 
Q 1469 391 1925 391 
Q 2381 391 2643 752 
Q 2906 1113 2906 1747 
Q 2906 2381 2643 2742 
Q 2381 3103 1925 3103 
Q 1469 3103 1208 2742 
Q 947 2381 947 1747 
z
" transform="scale(0.015625)"/>
       <path id="DejaVuSans-10" d="M 313 2009 
L 1997 2009 
L 1997 1497 
L 313 1497 
L 313 2009 
z
" transform="scale(0.015625)"/>
       <path id="DejaVuSans-35" d="M 2841 2188 
Q 3044 2119 3236 1894 
Q 3428 1669 3622 1275 
L 4263 0 
L 3584 0 
L 2988 1197 
Q 2756 1666 2539 1819 
Q 2322 1972 1947 1972 
L 1259 1972 
L 1259 0 
L 628 0 
L 628 4666 
L 2053 4666 
Q 2853 4666 3247 4331 
Q 3641 3997 3641 3322 
Q 3641 2881 3436 2590 
Q 3231 2300 2841 2188 
z
M 1259 4147 
L 1259 2491 
L 2053 2491 
Q 2509 2491 2742 2702 
Q 2975 2913 2975 3322 
Q 2975 3731 2742 3939 
Q 2509 4147 2053 4147 
L 1259 4147 
z
" transform="scale(0.015625)"/>
       <path id="DejaVuSans-74" d="M 838 2444 
L 2163 2444 
L 2163 2088 
L 294 2088 
L 294 2431 
Q 400 2528 597 2703 
Q 1672 3656 1672 3950 
Q 1672 4156 1509 4282 
Q 1347 4409 1081 4409 
Q 919 4409 728 4354 
Q 538 4300 313 4191 
L 313 4575 
Q 553 4663 761 4706 
Q 969 4750 1147 4750 
Q 1600 4750 1872 4544 
Q 2144 4338 2144 4000 
Q 2144 3566 1109 2678 
Q 934 2528 838 2444 
z
" transform="scale(0.015625)"/>
       <path id="DejaVuSans-56" d="M 2834 3397 
L 2834 2853 
Q 2591 2978 2328 3040 
Q 2066 3103 1784 3103 
Q 1356 3103 1142 2972 
Q 928 2841 928 2578 
Q 928 2378 1081 2264 
Q 1234 2150 1697 2047 
L 1894 2003 
Q 2506 1872 2764 1633 
Q 3022 1394 3022 966 
Q 3022 478 2636 193 
Q 2250 -91 1575 -91 
Q 1294 -91 989 -36 
Q 684 19 347 128 
L 347 722 
Q 666 556 975 473 
Q 1284 391 1588 391 
Q 1994 391 2212 530 
Q 2431 669 2431 922 
Q 2431 1156 2273 1281 
Q 2116 1406 1581 1522 
L 1381 1569 
Q 847 1681 609 1914 
Q 372 2147 372 2553 
Q 372 3047 722 3315 
Q 1072 3584 1716 3584 
Q 2034 3584 2315 3537 
Q 2597 3491 2834 3397 
z
" transform="scale(0.015625)"/>
       <path id="DejaVuSans-5a" d="M 269 3500 
L 844 3500 
L 1563 769 
L 2278 3500 
L 2956 3500 
L 3675 769 
L 4391 3500 
L 4966 3500 
L 4050 0 
L 3372 0 
L 2619 2869 
L 1863 0 
L 1184 0 
L 269 3500 
z
" transform="scale(0.015625)"/>
       <path id="DejaVuSans-45" d="M 3116 1747 
Q 3116 2381 2855 2742 
Q 2594 3103 2138 3103 
Q 1681 3103 1420 2742 
Q 1159 2381 1159 1747 
Q 1159 1113 1420 752 
Q 1681 391 2138 391 
Q 2594 391 2855 752 
Q 3116 1113 3116 1747 
z
M 1159 2969 
Q 1341 3281 1617 3432 
Q 1894 3584 2278 3584 
Q 2916 3584 3314 3078 
Q 3713 2572 3713 1747 
Q 3713 922 3314 415 
Q 2916 -91 2278 -91 
Q 1894 -91 1617 61 
Q 1341 213 1159 525 
L 1159 0 
L 581 0 
L 581 4863 
L 1159 4863 
L 1159 2969 
z
" transform="scale(0.015625)"/>
       <path id="DejaVuSans-4e" d="M 581 4863 
L 1159 4863 
L 1159 1991 
L 2875 3500 
L 3609 3500 
L 1753 1863 
L 3688 0 
L 2938 0 
L 1159 1709 
L 1159 0 
L 581 0 
L 581 4863 
z
" transform="scale(0.015625)"/>
      </defs>
      <use xlink:href="#DejaVuSans-2b"/>
      <use xlink:href="#DejaVuSans-48" transform="translate(75.203125 0)"/>
      <use xlink:href="#DejaVuSans-4f" transform="translate(136.734375 0)"/>
      <use xlink:href="#DejaVuSans-47" transform="translate(164.515625 0)"/>
      <use xlink:href="#DejaVuSans-10" transform="translate(228 0)"/>
      <use xlink:href="#DejaVuSans-52" transform="translate(265.9375 0)"/>
      <use xlink:href="#DejaVuSans-58" transform="translate(327.125 0)"/>
      <use xlink:href="#DejaVuSans-57" transform="translate(390.5 0)"/>
      <use xlink:href="#DejaVuSans-3" transform="translate(429.703125 0)"/>
      <use xlink:href="#DejaVuSans-35" transform="translate(461.484375 0)"/>
      <use xlink:href="#DejaVuSans-74" transform="translate(530.96875 0)"/>
      <use xlink:href="#DejaVuSans-3" transform="translate(571.0625 0)"/>
      <use xlink:href="#DejaVuSans-4f" transform="translate(602.84375 0)"/>
      <use xlink:href="#DejaVuSans-52" transform="translate(630.625 0)"/>
      <use xlink:href="#DejaVuSans-56" transform="translate(691.8125 0)"/>
      <use xlink:href="#DejaVuSans-57" transform="translate(743.90625 0)"/>
      <use xlink:href="#DejaVuSans-3" transform="translate(783.109375 0)"/>
      <use xlink:href="#DejaVuSans-5a" transform="translate(814.890625 0)"/>
      <use xlink:href="#DejaVuSans-4b" transform="translate(896.671875 0)"/>
      <use xlink:href="#DejaVuSans-48" transform="translate(960.046875 0)"/>
      <use xlink:href="#DejaVuSans-51" transform="translate(1021.578125 0)"/>
      <use xlink:href="#DejaVuSans-3" transform="translate(1084.953125 0)"/>
      <use xlink:href="#DejaVuSans-57" transform="translate(1116.734375 0)"/>
      <use xlink:href="#DejaVuSans-4b" transform="translate(1155.9375 0)"/>
      <use xlink:href="#DejaVuSans-48" transform="translate(1219.3125 0)"/>
      <use xlink:href="#DejaVuSans-3" transform="translate(1280.84375 0)"/>
      <use xlink:href="#DejaVuSans-45" transform="translate(1312.625 0)"/>
      <use xlink:href="#DejaVuSans-4f" transform="translate(1376.109375 0)"/>
      <use xlink:href="#DejaVuSans-52" transform="translate(1403.890625 0)"/>
      <use xlink:href="#DejaVuSans-46" transform="translate(1465.078125 0)"/>
      <use xlink:href="#DejaVuSans-4e" transform="translate(1520.0625 0)"/>
      <use xlink:href="#DejaVuSans-3" transform="translate(1577.96875 0)"/>
      <use xlink:href="#DejaVuSans-4c" transform="translate(1609.75 0)"/>
      <use xlink:href="#DejaVuSans-56" transform="translate(1637.53125 0)"/>
      <use xlink:href="#DejaVuSans-3" transform="translate(1689.625 0)"/>
      <use xlink:href="#DejaVuSans-47" transform="translate(1721.40625 0)"/>
      <use xlink:href="#DejaVuSans-55" transform="translate(1784.890625 0)"/>
      <use xlink:href="#DejaVuSans-52" transform="translate(1823.796875 0)"/>
      <use xlink:href="#DejaVuSans-53" transform="translate(1884.984375 0)"/>
      <use xlink:href="#DejaVuSans-53" transform="translate(1948.46875 0)"/>
      <use xlink:href="#DejaVuSans-48" transform="translate(2011.953125 0)"/>
      <use xlink:href="#DejaVuSans-47" transform="translate(2073.484375 0)"/>
     </g>
    </g>
   </g>
   <g id="line2d_24">
    <path d="M 50.466406 280.33715 
L 669.224062 280.33715 
" clip-path="url(#p15d7da0151)" style="fill: none; stroke-dasharray: 3.33,1.44; stroke-dashoffset: 0; stroke: #808080; stroke-width: 0.9"/>
   </g>
   <g id="patch_3">
    <path d="M 50.466406 296.84 
L 50.466406 43.251767 
" style="fill: none; stroke: #000000; stroke-width: 0.8; stroke-linejoin: miter; stroke-linecap: square"/>
   </g>
   <g id="patch_4">
    <path d="M 669.224062 296.84 
L 669.224062 43.251767 
" style="fill: none; stroke: #000000; stroke-width: 0.8; stroke-linejoin: miter; stroke-linecap: square"/>
   </g>
   <g id="patch_5">
    <path d="M 50.466406 296.84 
L 669.224062 296.84 
" style="fill: none; stroke: #000000; stroke-width: 0.8; stroke-linejoin: miter; stroke-linecap: square"/>
   </g>
   <g id="patch_6">
    <path d="M 50.466406 43.251767 
L 669.224062 43.251767 
" style="fill: none; stroke: #000000; stroke-width: 0.8; stroke-linejoin: miter; stroke-linecap: square"/>
   </g>
   <g id="line2d_25">
    <path d="M 113.131655 182.529186 
" clip-path="url(#p15d7da0151)" style="fill: none; stroke: #3d4f57; stroke-opacity: 0.85; stroke-width: 1.5; stroke-linecap: square"/>
    <defs>
     <path id="mdaee6e6366" d="M 0 3.5 
C 0.928211 3.5 1.81853 3.131218 2.474874 2.474874 
C 3.131218 1.81853 3.5 0.928211 3.5 0 
C 3.5 -0.928211 3.131218 -1.81853 2.474874 -2.474874 
C 1.81853 -3.131218 0.928211 -3.5 0 -3.5 
C -0.928211 -3.5 -1.81853 -3.131218 -2.474874 -2.474874 
C -3.131218 -1.81853 -3.5 -0.928211 -3.5 0 
C -3.5 0.928211 -3.131218 1.81853 -2.474874 2.474874 
C -1.81853 3.131218 -0.928211 3.5 0 3.5 
z
" style="stroke: #3d4f57; stroke-opacity: 0.85"/>
    </defs>
    <g clip-path="url(#p15d7da0151)">
     <use xlink:href="#mdaee6e6366" x="113.131655" y="182.529186" style="fill: #3d4f57; fill-opacity: 0.85; stroke: #3d4f57; stroke-opacity: 0.85"/>
    </g>
   </g>
   <g id="line2d_26">
    <path d="M 113.131655 236.632151 
" clip-path="url(#p15d7da0151)" style="fill: none; stroke: #3d4f57; stroke-opacity: 0.85; stroke-width: 1.5; stroke-linecap: square"/>
    <defs>
     <path id="m87ec072569" d="M -3.5 3.5 
L 3.5 3.5 
L 3.5 -3.5 
L -3.5 -3.5 
z
" style="stroke: #3d4f57; stroke-opacity: 0.85; stroke-linejoin: miter"/>
    </defs>
    <g clip-path="url(#p15d7da0151)">
     <use xlink:href="#m87ec072569" x="113.131655" y="236.632151" style="fill: #3d4f57; fill-opacity: 0.85; stroke: #3d4f57; stroke-opacity: 0.85; stroke-linejoin: miter"/>
    </g>
   </g>
   <g id="line2d_27">
    <path d="M 113.131655 189.49144 
" clip-path="url(#p15d7da0151)" style="fill: none; stroke: #3d4f57; stroke-opacity: 0.85; stroke-width: 1.5; stroke-linecap: square"/>
    <defs>
     <path id="mf84a819888" d="M 0 -3.5 
L -3.5 3.5 
L 3.5 3.5 
z
" style="stroke: #3d4f57; stroke-opacity: 0.85; stroke-linejoin: miter"/>
    </defs>
    <g clip-path="url(#p15d7da0151)">
     <use xlink:href="#mf84a819888" x="113.131655" y="189.49144" style="fill: #3d4f57; fill-opacity: 0.85; stroke: #3d4f57; stroke-opacity: 0.85; stroke-linejoin: miter"/>
    </g>
   </g>
   <g id="line2d_28">
    <path d="M 113.131655 174.519886 
" clip-path="url(#p15d7da0151)" style="fill: none; stroke: #3d4f57; stroke-opacity: 0.85; stroke-width: 1.5; stroke-linecap: square"/>
    <defs>
     <path id="med03cbec05" d="M -0 4.949747 
L 4.949747 0 
L 0 -4.949747 
L -4.949747 -0 
z
" style="stroke: #3d4f57; stroke-opacity: 0.85; stroke-linejoin: miter"/>
    </defs>
    <g clip-path="url(#p15d7da0151)">
     <use xlink:href="#med03cbec05" x="113.131655" y="174.519886" style="fill: #3d4f57; fill-opacity: 0.85; stroke: #3d4f57; stroke-opacity: 0.85; stroke-linejoin: miter"/>
    </g>
   </g>
   <g id="line2d_29">
    <path d="M 236.488445 54.778505 
" clip-path="url(#p15d7da0151)" style="fill: none; stroke: #3d4f57; stroke-opacity: 0.85; stroke-width: 1.5; stroke-linecap: square"/>
    <g clip-path="url(#p15d7da0151)">
     <use xlink:href="#mdaee6e6366" x="236.488445" y="54.778505" style="fill: #3d4f57; fill-opacity: 0.85; stroke: #3d4f57; stroke-opacity: 0.85"/>
    </g>
   </g>
   <g id="line2d_30">
    <path d="M 236.488445 78.157671 
" clip-path="url(#p15d7da0151)" style="fill: none; stroke: #3d4f57; stroke-opacity: 0.85; stroke-width: 1.5; stroke-linecap: square"/>
    <g clip-path="url(#p15d7da0151)">
     <use xlink:href="#m87ec072569" x="236.488445" y="78.157671" style="fill: #3d4f57; fill-opacity: 0.85; stroke: #3d4f57; stroke-opacity: 0.85; stroke-linejoin: miter"/>
    </g>
   </g>
   <g id="line2d_31">
    <path d="M 236.488445 176.579688 
" clip-path="url(#p15d7da0151)" style="fill: none; stroke: #3d4f57; stroke-opacity: 0.85; stroke-width: 1.5; stroke-linecap: square"/>
    <g clip-path="url(#p15d7da0151)">
     <use xlink:href="#mf84a819888" x="236.488445" y="176.579688" style="fill: #3d4f57; fill-opacity: 0.85; stroke: #3d4f57; stroke-opacity: 0.85; stroke-linejoin: miter"/>
    </g>
   </g>
   <g id="line2d_32">
    <path d="M 236.488445 58.638634 
" clip-path="url(#p15d7da0151)" style="fill: none; stroke: #3d4f57; stroke-opacity: 0.85; stroke-width: 1.5; stroke-linecap: square"/>
    <g clip-path="url(#p15d7da0151)">
     <use xlink:href="#med03cbec05" x="236.488445" y="58.638634" style="fill: #3d4f57; fill-opacity: 0.85; stroke: #3d4f57; stroke-opacity: 0.85; stroke-linejoin: miter"/>
    </g>
   </g>
   <g id="line2d_33">
    <path d="M 359.845234 281.924129 
" clip-path="url(#p15d7da0151)" style="fill: none; stroke: #3d4f57; stroke-opacity: 0.85; stroke-width: 1.5; stroke-linecap: square"/>
    <g clip-path="url(#p15d7da0151)">
     <use xlink:href="#mdaee6e6366" x="359.845234" y="281.924129" style="fill: #3d4f57; fill-opacity: 0.85; stroke: #3d4f57; stroke-opacity: 0.85"/>
    </g>
   </g>
   <g id="line2d_34">
    <path d="M 359.845234 279.684163 
" clip-path="url(#p15d7da0151)" style="fill: none; stroke: #3d4f57; stroke-opacity: 0.85; stroke-width: 1.5; stroke-linecap: square"/>
    <g clip-path="url(#p15d7da0151)">
     <use xlink:href="#m87ec072569" x="359.845234" y="279.684163" style="fill: #3d4f57; fill-opacity: 0.85; stroke: #3d4f57; stroke-opacity: 0.85; stroke-linejoin: miter"/>
    </g>
   </g>
   <g id="line2d_35">
    <path d="M 359.845234 282.868407 
" clip-path="url(#p15d7da0151)" style="fill: none; stroke: #3d4f57; stroke-opacity: 0.85; stroke-width: 1.5; stroke-linecap: square"/>
    <g clip-path="url(#p15d7da0151)">
     <use xlink:href="#mf84a819888" x="359.845234" y="282.868407" style="fill: #3d4f57; fill-opacity: 0.85; stroke: #3d4f57; stroke-opacity: 0.85; stroke-linejoin: miter"/>
    </g>
   </g>
   <g id="line2d_36">
    <path d="M 359.845234 273.663423 
" clip-path="url(#p15d7da0151)" style="fill: none; stroke: #3d4f57; stroke-opacity: 0.85; stroke-width: 1.5; stroke-linecap: square"/>
    <g clip-path="url(#p15d7da0151)">
     <use xlink:href="#med03cbec05" x="359.845234" y="273.663423" style="fill: #3d4f57; fill-opacity: 0.85; stroke: #3d4f57; stroke-opacity: 0.85; stroke-linejoin: miter"/>
    </g>
   </g>
   <g id="line2d_37">
    <path d="M 483.202024 164.203404 
" clip-path="url(#p15d7da0151)" style="fill: none; stroke: #3d4f57; stroke-opacity: 0.85; stroke-width: 1.5; stroke-linecap: square"/>
    <g clip-path="url(#p15d7da0151)">
     <use xlink:href="#mdaee6e6366" x="483.202024" y="164.203404" style="fill: #3d4f57; fill-opacity: 0.85; stroke: #3d4f57; stroke-opacity: 0.85"/>
    </g>
   </g>
   <g id="line2d_38">
    <path d="M 483.202024 226.500185 
" clip-path="url(#p15d7da0151)" style="fill: none; stroke: #3d4f57; stroke-opacity: 0.85; stroke-width: 1.5; stroke-linecap: square"/>
    <g clip-path="url(#p15d7da0151)">
     <use xlink:href="#m87ec072569" x="483.202024" y="226.500185" style="fill: #3d4f57; fill-opacity: 0.85; stroke: #3d4f57; stroke-opacity: 0.85; stroke-linejoin: miter"/>
    </g>
   </g>
   <g id="line2d_39">
    <path d="M 483.202024 157.482016 
" clip-path="url(#p15d7da0151)" style="fill: none; stroke: #3d4f57; stroke-opacity: 0.85; stroke-width: 1.5; stroke-linecap: square"/>
    <g clip-path="url(#p15d7da0151)">
     <use xlink:href="#mf84a819888" x="483.202024" y="157.482016" style="fill: #3d4f57; fill-opacity: 0.85; stroke: #3d4f57; stroke-opacity: 0.85; stroke-linejoin: miter"/>
    </g>
   </g>
   <g id="line2d_40">
    <path d="M 483.202024 232.751003 
" clip-path="url(#p15d7da0151)" style="fill: none; stroke: #3d4f57; stroke-opacity: 0.85; stroke-width: 1.5; stroke-linecap: square"/>
    <g clip-path="url(#p15d7da0151)">
     <use xlink:href="#med03cbec05" x="483.202024" y="232.751003" style="fill: #3d4f57; fill-opacity: 0.85; stroke: #3d4f57; stroke-opacity: 0.85; stroke-linejoin: miter"/>
    </g>
   </g>
   <g id="line2d_41">
    <path d="M 606.558813 279.403513 
" clip-path="url(#p15d7da0151)" style="fill: none; stroke: #3d4f57; stroke-opacity: 0.85; stroke-width: 1.5; stroke-linecap: square"/>
    <g clip-path="url(#p15d7da0151)">
     <use xlink:href="#mdaee6e6366" x="606.558813" y="279.403513" style="fill: #3d4f57; fill-opacity: 0.85; stroke: #3d4f57; stroke-opacity: 0.85"/>
    </g>
   </g>
   <g id="line2d_42">
    <path d="M 606.558813 285.313262 
" clip-path="url(#p15d7da0151)" style="fill: none; stroke: #3d4f57; stroke-opacity: 0.85; stroke-width: 1.5; stroke-linecap: square"/>
    <g clip-path="url(#p15d7da0151)">
     <use xlink:href="#m87ec072569" x="606.558813" y="285.313262" style="fill: #3d4f57; fill-opacity: 0.85; stroke: #3d4f57; stroke-opacity: 0.85; stroke-linejoin: miter"/>
    </g>
   </g>
   <g id="line2d_43">
    <path d="M 606.558813 280.690888 
" clip-path="url(#p15d7da0151)" style="fill: none; stroke: #3d4f57; stroke-opacity: 0.85; stroke-width: 1.5; stroke-linecap: square"/>
    <g clip-path="url(#p15d7da0151)">
     <use xlink:href="#mf84a819888" x="606.558813" y="280.690888" style="fill: #3d4f57; fill-opacity: 0.85; stroke: #3d4f57; stroke-opacity: 0.85; stroke-linejoin: miter"/>
    </g>
   </g>
   <g id="line2d_44">
    <path d="M 606.558813 282.349204 
" clip-path="url(#p15d7da0151)" style="fill: none; stroke: #3d4f57; stroke-opacity: 0.85; stroke-width: 1.5; stroke-linecap: square"/>
    <g clip-path="url(#p15d7da0151)">
     <use xlink:href="#med03cbec05" x="606.558813" y="282.349204" style="fill: #3d4f57; fill-opacity: 0.85; stroke: #3d4f57; stroke-opacity: 0.85; stroke-linejoin: miter"/>
    </g>
   </g>
   <g id="LineCollection_1">
    <path d="M 78.591754 195.793166 
L 147.671556 195.793166 
" clip-path="url(#p15d7da0151)" style="fill: none; stroke: #000000; stroke-width: 2.4"/>
   </g>
   <g id="LineCollection_2">
    <path d="M 201.948544 92.038625 
L 271.028346 92.038625 
" clip-path="url(#p15d7da0151)" style="fill: none; stroke: #000000; stroke-width: 2.4"/>
   </g>
   <g id="LineCollection_3">
    <path d="M 325.305333 279.53503 
L 394.385135 279.53503 
" clip-path="url(#p15d7da0151)" style="fill: none; stroke: #000000; stroke-width: 2.4"/>
   </g>
   <g id="LineCollection_4">
    <path d="M 448.662123 195.234152 
L 517.741925 195.234152 
" clip-path="url(#p15d7da0151)" style="fill: none; stroke: #000000; stroke-width: 2.4"/>
   </g>
   <g id="LineCollection_5">
    <path d="M 572.018912 281.939217 
L 641.098714 281.939217 
" clip-path="url(#p15d7da0151)" style="fill: none; stroke: #000000; stroke-width: 2.4"/>
   </g>
   <g id="legend_1">
    <g id="line2d_45">
     <path d="M 536.530312 53.075595 
L 544.030312 53.075595 
L 551.530312 53.075595 
" style="fill: none"/>
     <defs>
      <path id="med92822ea2" d="M 0 3 
C 0.795609 3 1.55874 2.683901 2.12132 2.12132 
C 2.683901 1.55874 3 0.795609 3 0 
C 3 -0.795609 2.683901 -1.55874 2.12132 -2.12132 
C 1.55874 -2.683901 0.795609 -3 0 -3 
C -0.795609 -3 -1.55874 -2.683901 -2.12132 -2.12132 
C -2.683901 -1.55874 -3 -0.795609 -3 0 
C -3 0.795609 -2.683901 1.55874 -2.12132 2.12132 
C -1.55874 2.683901 -0.795609 3 0 3 
z
" style="stroke: #262626"/>
     </defs>
     <g>
      <use xlink:href="#med92822ea2" x="544.030312" y="53.075595" style="fill: #262626; stroke: #262626"/>
     </g>
    </g>
    <g id="text_16">
     <!-- seed 19 -->
     <g transform="translate(557.530312 55.700595) scale(0.075 -0.075)">
      <defs>
       <path id="DejaVuSans-1c" d="M 703 97 
L 703 672 
Q 941 559 1184 500 
Q 1428 441 1663 441 
Q 2288 441 2617 861 
Q 2947 1281 2994 2138 
Q 2813 1869 2534 1725 
Q 2256 1581 1919 1581 
Q 1219 1581 811 2004 
Q 403 2428 403 3163 
Q 403 3881 828 4315 
Q 1253 4750 1959 4750 
Q 2769 4750 3195 4129 
Q 3622 3509 3622 2328 
Q 3622 1225 3098 567 
Q 2575 -91 1691 -91 
Q 1453 -91 1209 -44 
Q 966 3 703 97 
z
M 1959 2075 
Q 2384 2075 2632 2365 
Q 2881 2656 2881 3163 
Q 2881 3666 2632 3958 
Q 2384 4250 1959 4250 
Q 1534 4250 1286 3958 
Q 1038 3666 1038 3163 
Q 1038 2656 1286 2365 
Q 1534 2075 1959 2075 
z
" transform="scale(0.015625)"/>
      </defs>
      <use xlink:href="#DejaVuSans-56"/>
      <use xlink:href="#DejaVuSans-48" transform="translate(52.09375 0)"/>
      <use xlink:href="#DejaVuSans-48" transform="translate(113.625 0)"/>
      <use xlink:href="#DejaVuSans-47" transform="translate(175.15625 0)"/>
      <use xlink:href="#DejaVuSans-3" transform="translate(238.640625 0)"/>
      <use xlink:href="#DejaVuSans-14" transform="translate(270.421875 0)"/>
      <use xlink:href="#DejaVuSans-1c" transform="translate(334.046875 0)"/>
     </g>
    </g>
    <g id="line2d_46">
     <path d="M 536.530312 64.326181 
L 544.030312 64.326181 
L 551.530312 64.326181 
" style="fill: none"/>
     <defs>
      <path id="m4bd91cf79a" d="M -3 3 
L 3 3 
L 3 -3 
L -3 -3 
z
" style="stroke: #262626; stroke-linejoin: miter"/>
     </defs>
     <g>
      <use xlink:href="#m4bd91cf79a" x="544.030312" y="64.326181" style="fill: #262626; stroke: #262626; stroke-linejoin: miter"/>
     </g>
    </g>
    <g id="text_17">
     <!-- seed 20 -->
     <g transform="translate(557.530312 66.951181) scale(0.075 -0.075)">
      <use xlink:href="#DejaVuSans-56"/>
      <use xlink:href="#DejaVuSans-48" transform="translate(52.09375 0)"/>
      <use xlink:href="#DejaVuSans-48" transform="translate(113.625 0)"/>
      <use xlink:href="#DejaVuSans-47" transform="translate(175.15625 0)"/>
      <use xlink:href="#DejaVuSans-3" transform="translate(238.640625 0)"/>
      <use xlink:href="#DejaVuSans-15" transform="translate(270.421875 0)"/>
      <use xlink:href="#DejaVuSans-13" transform="translate(334.046875 0)"/>
     </g>
    </g>
    <g id="line2d_47">
     <path d="M 536.530312 75.576767 
L 544.030312 75.576767 
L 551.530312 75.576767 
" style="fill: none"/>
     <defs>
      <path id="maeea9bfb6f" d="M 0 -3 
L -3 3 
L 3 3 
z
" style="stroke: #262626; stroke-linejoin: miter"/>
     </defs>
     <g>
      <use xlink:href="#maeea9bfb6f" x="544.030312" y="75.576767" style="fill: #262626; stroke: #262626; stroke-linejoin: miter"/>
     </g>
    </g>
    <g id="text_18">
     <!-- seed 21 -->
     <g transform="translate(557.530312 78.201767) scale(0.075 -0.075)">
      <use xlink:href="#DejaVuSans-56"/>
      <use xlink:href="#DejaVuSans-48" transform="translate(52.09375 0)"/>
      <use xlink:href="#DejaVuSans-48" transform="translate(113.625 0)"/>
      <use xlink:href="#DejaVuSans-47" transform="translate(175.15625 0)"/>
      <use xlink:href="#DejaVuSans-3" transform="translate(238.640625 0)"/>
      <use xlink:href="#DejaVuSans-15" transform="translate(270.421875 0)"/>
      <use xlink:href="#DejaVuSans-14" transform="translate(334.046875 0)"/>
     </g>
    </g>
    <g id="line2d_48">
     <path d="M 536.530312 86.827353 
L 544.030312 86.827353 
L 551.530312 86.827353 
" style="fill: none"/>
     <defs>
      <path id="m8eef6b6965" d="M -0 4.242641 
L 4.242641 0 
L 0 -4.242641 
L -4.242641 -0 
z
" style="stroke: #262626; stroke-linejoin: miter"/>
     </defs>
     <g>
      <use xlink:href="#m8eef6b6965" x="544.030312" y="86.827353" style="fill: #262626; stroke: #262626; stroke-linejoin: miter"/>
     </g>
    </g>
    <g id="text_19">
     <!-- seed 22 -->
     <g transform="translate(557.530312 89.452353) scale(0.075 -0.075)">
      <use xlink:href="#DejaVuSans-56"/>
      <use xlink:href="#DejaVuSans-48" transform="translate(52.09375 0)"/>
      <use xlink:href="#DejaVuSans-48" transform="translate(113.625 0)"/>
      <use xlink:href="#DejaVuSans-47" transform="translate(175.15625 0)"/>
      <use xlink:href="#DejaVuSans-3" transform="translate(238.640625 0)"/>
      <use xlink:href="#DejaVuSans-15" transform="translate(270.421875 0)"/>
      <use xlink:href="#DejaVuSans-15" transform="translate(334.046875 0)"/>
     </g>
    </g>
    <g id="line2d_49">
     <path d="M 536.530312 98.077939 
L 544.030312 98.077939 
L 551.530312 98.077939 
" style="fill: none; stroke: #737373; stroke-width: 1.4; stroke-linecap: square"/>
    </g>
    <g id="text_20">
     <!-- within-seed permutation SD -->
     <g transform="translate(557.530312 100.702939) scale(0.075 -0.075)">
      <defs>
       <path id="DejaVuSans-36" d="M 3425 4513 
L 3425 3897 
Q 3066 4069 2747 4153 
Q 2428 4238 2131 4238 
Q 1616 4238 1336 4038 
Q 1056 3838 1056 3469 
Q 1056 3159 1242 3001 
Q 1428 2844 1947 2747 
L 2328 2669 
Q 3034 2534 3370 2195 
Q 3706 1856 3706 1288 
Q 3706 609 3251 259 
Q 2797 -91 1919 -91 
Q 1588 -91 1214 -16 
Q 841 59 441 206 
L 441 856 
Q 825 641 1194 531 
Q 1563 422 1919 422 
Q 2459 422 2753 634 
Q 3047 847 3047 1241 
Q 3047 1584 2836 1778 
Q 2625 1972 2144 2069 
L 1759 2144 
Q 1053 2284 737 2584 
Q 422 2884 422 3419 
Q 422 4038 858 4394 
Q 1294 4750 2059 4750 
Q 2388 4750 2728 4690 
Q 3069 4631 3425 4513 
z
" transform="scale(0.015625)"/>
       <path id="DejaVuSans-27" d="M 1259 4147 
L 1259 519 
L 2022 519 
Q 2988 519 3436 956 
Q 3884 1394 3884 2338 
Q 3884 3275 3436 3711 
Q 2988 4147 2022 4147 
L 1259 4147 
z
M 628 4666 
L 1925 4666 
Q 3281 4666 3915 4102 
Q 4550 3538 4550 2338 
Q 4550 1131 3912 565 
Q 3275 0 1925 0 
L 628 0 
L 628 4666 
z
" transform="scale(0.015625)"/>
      </defs>
      <use xlink:href="#DejaVuSans-5a"/>
      <use xlink:href="#DejaVuSans-4c" transform="translate(81.78125 0)"/>
      <use xlink:href="#DejaVuSans-57" transform="translate(109.5625 0)"/>
      <use xlink:href="#DejaVuSans-4b" transform="translate(148.765625 0)"/>
      <use xlink:href="#DejaVuSans-4c" transform="translate(212.140625 0)"/>
      <use xlink:href="#DejaVuSans-51" transform="translate(239.921875 0)"/>
      <use xlink:href="#DejaVuSans-10" transform="translate(303.296875 0)"/>
      <use xlink:href="#DejaVuSans-56" transform="translate(339.375 0)"/>
      <use xlink:href="#DejaVuSans-48" transform="translate(391.46875 0)"/>
      <use xlink:href="#DejaVuSans-48" transform="translate(453 0)"/>
      <use xlink:href="#DejaVuSans-47" transform="translate(514.53125 0)"/>
      <use xlink:href="#DejaVuSans-3" transform="translate(578.015625 0)"/>
      <use xlink:href="#DejaVuSans-53" transform="translate(609.796875 0)"/>
      <use xlink:href="#DejaVuSans-48" transform="translate(673.28125 0)"/>
      <use xlink:href="#DejaVuSans-55" transform="translate(734.8125 0)"/>
      <use xlink:href="#DejaVuSans-50" transform="translate(774.171875 0)"/>
      <use xlink:href="#DejaVuSans-58" transform="translate(871.578125 0)"/>
      <use xlink:href="#DejaVuSans-57" transform="translate(934.953125 0)"/>
      <use xlink:href="#DejaVuSans-44" transform="translate(974.15625 0)"/>
      <use xlink:href="#DejaVuSans-57" transform="translate(1035.4375 0)"/>
      <use xlink:href="#DejaVuSans-4c" transform="translate(1074.640625 0)"/>
      <use xlink:href="#DejaVuSans-52" transform="translate(1102.421875 0)"/>
      <use xlink:href="#DejaVuSans-51" transform="translate(1163.609375 0)"/>
      <use xlink:href="#DejaVuSans-3" transform="translate(1226.984375 0)"/>
      <use xlink:href="#DejaVuSans-36" transform="translate(1258.765625 0)"/>
      <use xlink:href="#DejaVuSans-27" transform="translate(1322.25 0)"/>
     </g>
    </g>
    <g id="line2d_50">
     <path d="M 536.530312 109.328525 
L 544.030312 109.328525 
L 551.530312 109.328525 
" style="fill: none; stroke: #000000; stroke-width: 2.4; stroke-linecap: square"/>
    </g>
    <g id="text_21">
     <!-- mean over seeds -->
     <g transform="translate(557.530312 111.953525) scale(0.075 -0.075)">
      <defs>
       <path id="DejaVuSans-59" d="M 191 3500 
L 800 3500 
L 1894 563 
L 2988 3500 
L 3597 3500 
L 2284 0 
L 1503 0 
L 191 3500 
z
" transform="scale(0.015625)"/>
      </defs>
      <use xlink:href="#DejaVuSans-50"/>
      <use xlink:href="#DejaVuSans-48" transform="translate(97.40625 0)"/>
      <use xlink:href="#DejaVuSans-44" transform="translate(158.9375 0)"/>
      <use xlink:href="#DejaVuSans-51" transform="translate(220.21875 0)"/>
      <use xlink:href="#DejaVuSans-3" transform="translate(283.59375 0)"/>
      <use xlink:href="#DejaVuSans-52" transform="translate(315.375 0)"/>
      <use xlink:href="#DejaVuSans-59" transform="translate(376.5625 0)"/>
      <use xlink:href="#DejaVuSans-48" transform="translate(435.75 0)"/>
      <use xlink:href="#DejaVuSans-55" transform="translate(497.28125 0)"/>
      <use xlink:href="#DejaVuSans-3" transform="translate(538.390625 0)"/>
      <use xlink:href="#DejaVuSans-56" transform="translate(570.171875 0)"/>
      <use xlink:href="#DejaVuSans-48" transform="translate(622.265625 0)"/>
      <use xlink:href="#DejaVuSans-48" transform="translate(683.796875 0)"/>
      <use xlink:href="#DejaVuSans-47" transform="translate(745.328125 0)"/>
      <use xlink:href="#DejaVuSans-56" transform="translate(808.8125 0)"/>
     </g>
    </g>
   </g>
  </g>
  <g id="text_22">
   <!-- Predeclared interaction blocks — held-out drop-block utility -->
   <g transform="translate(159.729375 16.318125) scale(0.12 -0.12)">
    <defs>
     <path id="DejaVuSans-33" d="M 1259 4147 
L 1259 2394 
L 2053 2394 
Q 2494 2394 2734 2622 
Q 2975 2850 2975 3272 
Q 2975 3691 2734 3919 
Q 2494 4147 2053 4147 
L 1259 4147 
z
M 628 4666 
L 2053 4666 
Q 2838 4666 3239 4311 
Q 3641 3956 3641 3272 
Q 3641 2581 3239 2228 
Q 2838 1875 2053 1875 
L 1259 1875 
L 1259 0 
L 628 0 
L 628 4666 
z
" transform="scale(0.015625)"/>
     <path id="DejaVuSans-af6" d="M 313 1978 
L 6088 1978 
L 6088 1528 
L 313 1528 
L 313 1978 
z
" transform="scale(0.015625)"/>
    </defs>
    <use xlink:href="#DejaVuSans-33"/>
    <use xlink:href="#DejaVuSans-55" transform="translate(58.546875 0)"/>
    <use xlink:href="#DejaVuSans-48" transform="translate(97.453125 0)"/>
    <use xlink:href="#DejaVuSans-47" transform="translate(158.984375 0)"/>
    <use xlink:href="#DejaVuSans-48" transform="translate(222.46875 0)"/>
    <use xlink:href="#DejaVuSans-46" transform="translate(284 0)"/>
    <use xlink:href="#DejaVuSans-4f" transform="translate(338.984375 0)"/>
    <use xlink:href="#DejaVuSans-44" transform="translate(366.765625 0)"/>
    <use xlink:href="#DejaVuSans-55" transform="translate(428.046875 0)"/>
    <use xlink:href="#DejaVuSans-48" transform="translate(466.953125 0)"/>
    <use xlink:href="#DejaVuSans-47" transform="translate(528.484375 0)"/>
    <use xlink:href="#DejaVuSans-3" transform="translate(591.96875 0)"/>
    <use xlink:href="#DejaVuSans-4c" transform="translate(623.75 0)"/>
    <use xlink:href="#DejaVuSans-51" transform="translate(651.53125 0)"/>
    <use xlink:href="#DejaVuSans-57" transform="translate(714.90625 0)"/>
    <use xlink:href="#DejaVuSans-48" transform="translate(754.109375 0)"/>
    <use xlink:href="#DejaVuSans-55" transform="translate(815.640625 0)"/>
    <use xlink:href="#DejaVuSans-44" transform="translate(856.75 0)"/>
    <use xlink:href="#DejaVuSans-46" transform="translate(918.03125 0)"/>
    <use xlink:href="#DejaVuSans-57" transform="translate(973.015625 0)"/>
    <use xlink:href="#DejaVuSans-4c" transform="translate(1012.21875 0)"/>
    <use xlink:href="#DejaVuSans-52" transform="translate(1040 0)"/>
    <use xlink:href="#DejaVuSans-51" transform="translate(1101.1875 0)"/>
    <use xlink:href="#DejaVuSans-3" transform="translate(1164.5625 0)"/>
    <use xlink:href="#DejaVuSans-45" transform="translate(1196.34375 0)"/>
    <use xlink:href="#DejaVuSans-4f" transform="translate(1259.828125 0)"/>
    <use xlink:href="#DejaVuSans-52" transform="translate(1287.609375 0)"/>
    <use xlink:href="#DejaVuSans-46" transform="translate(1348.796875 0)"/>
    <use xlink:href="#DejaVuSans-4e" transform="translate(1403.78125 0)"/>
    <use xlink:href="#DejaVuSans-56" transform="translate(1461.6875 0)"/>
    <use xlink:href="#DejaVuSans-3" transform="translate(1513.78125 0)"/>
    <use xlink:href="#DejaVuSans-af6" transform="translate(1545.5625 0)"/>
    <use xlink:href="#DejaVuSans-3" transform="translate(1645.5625 0)"/>
    <use xlink:href="#DejaVuSans-4b" transform="translate(1677.34375 0)"/>
    <use xlink:href="#DejaVuSans-48" transform="translate(1740.71875 0)"/>
    <use xlink:href="#DejaVuSans-4f" transform="translate(1802.25 0)"/>
    <use xlink:href="#DejaVuSans-47" transform="translate(1830.03125 0)"/>
    <use xlink:href="#DejaVuSans-10" transform="translate(1893.515625 0)"/>
    <use xlink:href="#DejaVuSans-52" transform="translate(1931.453125 0)"/>
    <use xlink:href="#DejaVuSans-58" transform="translate(1992.640625 0)"/>
    <use xlink:href="#DejaVuSans-57" transform="translate(2056.015625 0)"/>
    <use xlink:href="#DejaVuSans-3" transform="translate(2095.21875 0)"/>
    <use xlink:href="#DejaVuSans-47" transform="translate(2127 0)"/>
    <use xlink:href="#DejaVuSans-55" transform="translate(2190.484375 0)"/>
    <use xlink:href="#DejaVuSans-52" transform="translate(2229.390625 0)"/>
    <use xlink:href="#DejaVuSans-53" transform="translate(2290.578125 0)"/>
    <use xlink:href="#DejaVuSans-10" transform="translate(2354.0625 0)"/>
    <use xlink:href="#DejaVuSans-45" transform="translate(2390.140625 0)"/>
    <use xlink:href="#DejaVuSans-4f" transform="translate(2453.625 0)"/>
    <use xlink:href="#DejaVuSans-52" transform="translate(2481.40625 0)"/>
    <use xlink:href="#DejaVuSans-46" transform="translate(2542.59375 0)"/>
    <use xlink:href="#DejaVuSans-4e" transform="translate(2597.578125 0)"/>
    <use xlink:href="#DejaVuSans-3" transform="translate(2655.484375 0)"/>
    <use xlink:href="#DejaVuSans-58" transform="translate(2687.265625 0)"/>
    <use xlink:href="#DejaVuSans-57" transform="translate(2750.640625 0)"/>
    <use xlink:href="#DejaVuSans-4c" transform="translate(2789.84375 0)"/>
    <use xlink:href="#DejaVuSans-4f" transform="translate(2817.625 0)"/>
    <use xlink:href="#DejaVuSans-4c" transform="translate(2845.40625 0)"/>
    <use xlink:href="#DejaVuSans-57" transform="translate(2873.1875 0)"/>
    <use xlink:href="#DejaVuSans-5c" transform="translate(2912.390625 0)"/>
   </g>
  </g>
 </g>
 <defs>
  <clipPath id="p15d7da0151">
   <rect x="50.466406" y="43.251767" width="618.757656" height="253.588233"/>
  </clipPath>
 </defs>
</svg>
